<svg xmlns="http://www.w3.org/2000/svg" xmlns:xlink="http://www.w3.org/1999/xlink" width="500" zoomAndPan="magnify" viewBox="0 0 375 374.999991" height="500" preserveAspectRatio="xMidYMid meet" version="1.0"><defs><clipPath id="48f2740d93"><path d="M 32.75 107.753906 L 227 107.753906 L 227 325.253906 L 32.75 325.253906 Z M 32.75 107.753906 " clip-rule="nonzero"/></clipPath><clipPath id="e9401f3c36"><path d="M 125.125 167.441406 L 342.625 167.441406 L 342.625 274.394531 L 125.125 274.394531 Z M 125.125 167.441406 " clip-rule="nonzero"/></clipPath><clipPath id="a49d86adaf"><path d="M 234.480469 49.566406 L 342.480469 49.566406 L 342.480469 169.566406 L 234.480469 169.566406 Z M 234.480469 49.566406 " clip-rule="nonzero"/></clipPath><clipPath id="9276abd0b1"><path d="M 125.125 49.566406 L 238.375 49.566406 L 238.375 117.066406 L 125.125 117.066406 Z M 125.125 49.566406 " clip-rule="nonzero"/></clipPath></defs><g clip-path="url(#48f2740d93)"><path fill="#f6f3f3" d="M 141.40625 325.246094 C 81.492188 325.246094 32.75 276.503906 32.75 216.589844 C 32.75 156.679688 81.492188 107.9375 141.40625 107.9375 C 171.605469 107.9375 200.6875 120.660156 221.195312 142.839844 L 226.753906 148.847656 L 184.679688 187.757812 L 179.117188 181.746094 C 169.28125 171.105469 155.882812 165.246094 141.40625 165.246094 C 113.089844 165.246094 90.058594 188.28125 90.058594 216.589844 C 90.058594 231.90625 96.851562 246.320312 108.699219 256.136719 L 98.246094 268.746094 C 82.640625 255.804688 73.683594 236.796875 73.683594 216.589844 C 73.683594 179.25 104.066406 148.871094 141.40625 148.871094 C 157.742188 148.871094 173.027344 154.523438 185.230469 164.941406 L 203.347656 148.191406 C 186.464844 132.929688 164.316406 124.3125 141.40625 124.3125 C 90.523438 124.3125 49.125 165.703125 49.125 216.589844 C 49.125 267.472656 90.523438 308.871094 141.40625 308.871094 C 160.832031 308.871094 179.425781 302.898438 195.167969 291.597656 C 199.386719 288.574219 203.382812 285.15625 207.058594 281.4375 L 218.707031 292.941406 C 214.386719 297.316406 209.679688 301.339844 204.710938 304.902344 C 186.171875 318.210938 164.285156 325.246094 141.40625 325.246094 " fill-opacity="1" fill-rule="nonzero"/></g><g clip-path="url(#e9401f3c36)"><path fill="#f6f3f3" d="M 273.316406 161.894531 L 341.636719 55.621094 C 342.402344 54.425781 342.457031 52.914062 341.777344 51.671875 C 341.101562 50.429688 339.796875 49.65625 338.378906 49.65625 L 268.714844 49.65625 C 267.398438 49.65625 266.171875 50.324219 265.460938 51.4375 L 233.882812 100.554688 L 202.304688 51.4375 C 201.59375 50.324219 200.363281 49.65625 199.050781 49.65625 L 129.382812 49.65625 C 127.96875 49.65625 126.664062 50.429688 125.984375 51.671875 C 125.308594 52.914062 125.363281 54.425781 126.128906 55.621094 L 194.449219 161.894531 L 126.128906 268.167969 C 125.363281 269.363281 125.308594 270.875 125.984375 272.117188 C 126.664062 273.359375 127.96875 274.132812 129.382812 274.132812 L 199.050781 274.132812 C 200.363281 274.132812 201.59375 273.464844 202.304688 272.355469 L 233.882812 223.234375 L 265.460938 272.355469 C 266.171875 273.464844 267.398438 274.132812 268.714844 274.132812 L 338.378906 274.132812 C 339.796875 274.132812 341.101562 273.359375 341.777344 272.117188 C 342.457031 270.875 342.402344 269.363281 341.636719 268.167969 Z M 270.828125 266.394531 L 237.136719 213.984375 C 235.710938 211.765625 232.050781 211.765625 230.625 213.984375 L 196.9375 266.394531 L 136.46875 266.394531 L 202.304688 163.988281 C 203.121094 162.714844 203.121094 161.078125 202.304688 159.804688 L 136.46875 57.394531 L 196.9375 57.394531 L 230.628906 109.804688 C 232.050781 112.023438 235.710938 112.023438 237.140625 109.804688 L 270.828125 57.394531 L 331.292969 57.394531 L 265.460938 159.800781 C 264.644531 161.074219 264.644531 162.710938 265.460938 163.984375 L 331.289062 266.394531 Z M 270.828125 266.394531 " fill-opacity="1" fill-rule="nonzero"/></g><g clip-path="url(#a49d86adaf)"><path fill="#f6f3f3" d="M 273.316406 161.894531 L 341.636719 55.621094 C 342.402344 54.425781 342.457031 52.914062 341.777344 51.671875 C 341.101562 50.429688 339.796875 49.65625 338.378906 49.65625 L 268.714844 49.65625 C 267.398438 49.65625 266.171875 50.324219 265.460938 51.4375 L 233.882812 100.554688 L 202.304688 51.4375 C 201.59375 50.324219 200.363281 49.65625 199.050781 49.65625 L 129.382812 49.65625 C 127.96875 49.65625 126.664062 50.429688 125.984375 51.671875 C 125.308594 52.914062 125.363281 54.425781 126.128906 55.621094 L 194.449219 161.894531 L 126.128906 268.167969 C 125.363281 269.363281 125.308594 270.875 125.984375 272.117188 C 126.664062 273.359375 127.96875 274.132812 129.382812 274.132812 L 199.050781 274.132812 C 200.363281 274.132812 201.59375 273.464844 202.304688 272.355469 L 233.882812 223.234375 L 265.460938 272.355469 C 266.171875 273.464844 267.398438 274.132812 268.714844 274.132812 L 338.378906 274.132812 C 339.796875 274.132812 341.101562 273.359375 341.777344 272.117188 C 342.457031 270.875 342.402344 269.363281 341.636719 268.167969 Z M 270.828125 266.394531 L 237.136719 213.984375 C 235.710938 211.765625 232.050781 211.765625 230.625 213.984375 L 196.9375 266.394531 L 136.46875 266.394531 L 202.304688 163.988281 C 203.121094 162.714844 203.121094 161.078125 202.304688 159.804688 L 136.46875 57.394531 L 196.9375 57.394531 L 230.628906 109.804688 C 232.050781 112.023438 235.710938 112.023438 237.140625 109.804688 L 270.828125 57.394531 L 331.292969 57.394531 L 265.460938 159.800781 C 264.644531 161.074219 264.644531 162.710938 265.460938 163.984375 L 331.289062 266.394531 Z M 270.828125 266.394531 " fill-opacity="1" fill-rule="nonzero"/></g><g clip-path="url(#9276abd0b1)"><path fill="#f6f3f3" d="M 273.316406 162.066406 L 341.636719 55.792969 C 342.402344 54.601562 342.457031 53.085938 341.777344 51.84375 C 341.101562 50.601562 339.796875 49.828125 338.378906 49.828125 L 268.714844 49.828125 C 267.398438 49.828125 266.171875 50.5 265.460938 51.609375 L 233.882812 100.726562 L 202.304688 51.609375 C 201.59375 50.5 200.363281 49.828125 199.050781 49.828125 L 129.382812 49.828125 C 127.96875 49.828125 126.664062 50.601562 125.984375 51.84375 C 125.308594 53.085938 125.363281 54.601562 126.128906 55.792969 L 194.449219 162.066406 L 126.128906 268.34375 C 125.363281 269.535156 125.308594 271.046875 125.984375 272.289062 C 126.664062 273.53125 127.96875 274.308594 129.382812 274.308594 L 199.050781 274.308594 C 200.363281 274.308594 201.59375 273.636719 202.304688 272.53125 L 233.882812 223.410156 L 265.460938 272.527344 C 266.171875 273.636719 267.398438 274.308594 268.714844 274.308594 L 338.378906 274.308594 C 339.796875 274.308594 341.101562 273.53125 341.777344 272.289062 C 342.457031 271.046875 342.402344 269.535156 341.636719 268.34375 Z M 270.828125 266.566406 L 237.136719 214.160156 C 235.710938 211.941406 232.050781 211.941406 230.625 214.160156 L 196.9375 266.566406 L 136.46875 266.566406 L 202.304688 164.160156 C 203.121094 162.886719 203.121094 161.25 202.304688 159.976562 L 136.46875 57.570312 L 196.9375 57.570312 L 230.628906 109.976562 C 232.050781 112.195312 235.710938 112.195312 237.140625 109.976562 L 270.828125 57.570312 L 331.292969 57.570312 L 265.460938 159.972656 C 264.644531 161.246094 264.644531 162.882812 265.460938 164.15625 L 331.289062 266.566406 Z M 270.828125 266.566406 " fill-opacity="1" fill-rule="nonzero"/></g></svg>